<svg xmlns="http://www.w3.org/2000/svg" version="1.1" xmlns:xlink="http://www.w3.org/1999/xlink" xmlns:svgjs="http://svgjs.dev/svgjs" width="1500" height="1500" viewBox="0 0 1500 1500"><rect width="1500" height="1500" fill="#000000"></rect><g transform="matrix(0.6666666666666666,0,0,0.6666666666666666,249.39393939393938,438.5856950067477)"><svg viewBox="0 0 396 247" data-background-color="#000000" preserveAspectRatio="xMidYMid meet" height="935" width="1500" xmlns="http://www.w3.org/2000/svg" xmlns:xlink="http://www.w3.org/1999/xlink"><g id="tight-bounds" transform="matrix(1,0,0,1,0.2400000000000091,-0.09999999999999432)"><svg viewBox="0 0 395.52 247.2" height="247.2" width="395.52"><g><svg></svg></g><g><svg viewBox="0 0 395.52 247.2" height="247.2" width="395.52"><mask id="d52fe271-b6ff-4a84-b72d-4edd43f1721f"><rect width="640" height="400" fill="white"></rect><g transform="matrix(1,0,0,1,39.55199999999999,82.6886022913257)"><svg viewBox="0 0 316.416 81.8227954173486" height="81.8227954173486" width="316.416"><g><svg viewBox="0 0 316.416 81.8227954173486" height="81.8227954173486" width="316.416"><g><svg viewBox="0 0 316.416 81.8227954173486" height="81.8227954173486" width="316.416"><g><svg viewBox="0 0 316.416 81.8227954173486" height="81.8227954173486" width="316.416"><g id="SvgjsG2074"><svg viewBox="0 0 316.416 81.8227954173486" height="81.8227954173486" width="316.416" id="SvgjsSvg2073"><g><svg viewBox="0 0 316.416 81.8227954173486" height="81.8227954173486" width="316.416"><g transform="matrix(1,0,0,1,0,0)"><svg width="316.416" viewBox="-2.75 -41.5 184.29 48.4" height="81.8227954173486" data-palette-color="#77dfec"><path d="M15.25-17.25Q15.4-19.3 15.55-21.03 15.7-22.75 15.85-24.15L15.85-24.15 16.25-28.15Q12.35-27.55 7.95-25.85L7.95-25.85Q6.9-25.45 6-25.45L6-25.45Q4.65-25.45 3.53-26.2 2.4-26.95 1.75-28.4L1.75-28.4Q2.05-29.5 2.88-30.05 3.7-30.6 5.15-31.15L5.15-31.15Q12.1-33.7 21.05-33.65L21.05-33.65Q25.3-33.65 29.93-33.3 34.55-32.95 35.35-32.9L35.35-32.9 38.85-32.65Q39.05-32.65 39.53-32.65 40-32.65 40.3-32.43 40.6-32.2 40.6-31.7L40.6-31.7Q40.6-30.45 38.8-30.25L38.8-30.25Q34.3-29.75 32.4-29.55L32.4-29.55Q30.45-29.45 29.45-29.35L29.45-29.35Q25.55-29.1 23.6-28.95L23.6-28.95Q22.4-28.85 21.95-28.68 21.5-28.5 21.38-28.08 21.25-27.65 21.15-26.3L21.15-26.3Q20.9-23.15 20.1-15.45L20.1-15.45Q19.3-8.5 19.1-5.85L19.1-5.85Q19.05-4.4 18.45-2.35L18.45-2.35Q18.05-1.05 17.8-0.63 17.55-0.2 17.07-0.1 16.6 0 15.3-0.05L15.3-0.05Q14.35-0.05 13.83-0.48 13.3-0.9 13.3-1.65L13.3-1.65Q13.3-1.8 13.4-2.3L13.4-2.3Q14.5-6.65 15.25-17.25L15.25-17.25ZM48.65-2.55Q48.2-2.75 47.75-2.75L47.75-2.75Q47.3-2.75 46.97-2.53 46.65-2.3 46.25-1.85L46.25-1.85Q45.65-1.25 45-0.85L45-0.85Q44.4-0.5 42.8-0.2L42.8-0.2Q42.1-0.1 41.65-0.1L41.65-0.1Q39.55-0.1 37.27-1.03 35-1.95 34.05-3.25L34.05-3.25Q33.05-4.65 33.1-6.25L33.1-6.25Q33.15-8.65 35.1-11.05L35.1-11.05Q37-13.35 38.57-14.3 40.15-15.25 42.9-15.5L42.9-15.5Q43.5-15.5 44.62-15.7 45.75-15.9 45.75-16.25L45.75-16.25Q45.75-16.95 45.12-17.53 44.5-18.1 42.6-18.1L42.6-18.1Q41.9-18.1 40.5-18L40.5-18Q39.1-17.9 38.55-17.9L38.55-17.9Q36.85-17.9 36.1-18.45L36.1-18.45Q35.9-18.55 35.9-19.4L35.9-19.4Q35.9-20.9 36.95-21.3L36.95-21.3Q39.1-22.1 41.4-22.15L41.4-22.15Q44.3-22.15 46.77-20.88 49.25-19.6 50.4-17.7L50.4-17.7Q51.55-15.8 51.9-12.45L51.9-12.45Q52.3-8.7 52.3-2.9L52.3-2.9Q52.3-1.3 51.85-1.05L51.85-1.05Q51.45-0.8 51.1-0.8L51.1-0.8Q50.65-0.8 50.27-1.07 49.9-1.35 49.45-1.85L49.45-1.85Q49-2.4 48.65-2.55L48.65-2.55ZM40.75-3.15Q43.1-3.85 45.35-5.4L45.35-5.4Q45.85-5.75 46.25-6.3 46.65-6.85 46.75-7L46.75-7Q46.85-7.15 46.92-7.88 47-8.6 46.95-9.05L46.95-9.05Q46.9-9.2 46.77-9.85 46.65-10.5 46.4-11L46.4-11Q46.15-11.4 45.6-11.75 45.05-12.1 44.6-12.05L44.6-12.05Q43.65-12 42.55-11.35 41.45-10.7 40.5-9.6L40.5-9.6Q39.55-8.45 39.02-7.28 38.5-6.1 38.5-5.1L38.5-5.1Q38.6-3.75 39.25-3.3L39.25-3.3Q39.6-3.05 40.1-3.05L40.1-3.05Q40.5-3.05 40.75-3.15L40.75-3.15ZM62.35 1.1Q58.15 1.1 57-2.5L57-2.5Q57.4-2.5 58.07-2.48 58.75-2.45 59.2-2.35L59.2-2.35Q59.9-2.25 60.2-2.25L60.2-2.25Q62.45-2.25 63.95-4.25L63.95-4.25Q65-5.7 65-7.2L65-7.2Q65-8.2 64.5-9.15L64.5-9.15Q63.4-11.1 61.8-13.45L61.8-13.45Q60.75-15 59.9-16.4L59.9-16.4Q58.9-18 58.9-19.95L58.9-19.95Q58.9-21.75 59.92-23.13 60.95-24.5 62.95-24.85L62.95-24.85 64.55-25.15Q67.15-25.65 68.45-25.65L68.45-25.65Q70.6-25.65 72.25-24.65L72.25-24.65Q72.6-24.4 72.97-23.78 73.35-23.15 73.55-22.8L73.55-22.8Q73.2-22.65 72.57-22.33 71.95-22 71.5-21.95L71.5-21.95Q70.8-21.85 69.4-21.85L69.4-21.85Q68.05-21.85 67.35-21.8L67.35-21.8Q65.75-21.65 64.82-20.73 63.9-19.8 63.9-18.5L63.9-18.5Q63.9-17.5 64.5-16.45L64.5-16.45Q65.85-14.2 68.25-11.3L68.25-11.3Q70.05-9.05 70.05-6.65L70.05-6.65Q70.05-5.35 69.45-3.9L69.45-3.9Q67.4 1.1 62.35 1.1L62.35 1.1ZM80.64-22.45Q80.64-22.2 80.52-21.28 80.39-20.35 80.39-19.8L80.39-19.8Q80.39-19.4 80.49-19.3L80.49-19.3 81.94-20.7Q82.74-21.6 83.34-22.1L83.34-22.1Q84.64-23.3 85.99-23.3L85.99-23.3Q87.09-23.3 87.64-22.45L87.64-22.45Q87.94-21.95 87.94-21.3L87.94-21.3Q87.94-20.8 87.74-20.55L87.74-20.55Q86.99-19.4 85.04-17.1L85.04-17.1Q84.29-16.3 84.29-15.55L84.29-15.55Q84.29-14.85 84.99-14L84.99-14Q85.59-13.3 86.69-11.9L86.69-11.9Q88.84-9.15 90.52-7.48 92.19-5.8 94.39-4.7L94.39-4.7Q94.64-4.6 94.79-4.23 94.94-3.85 94.89-3.65L94.89-3.65Q94.84-3.4 94.49-3.15 94.14-2.9 93.89-2.95L93.89-2.95Q93.14-3.15 92.64-3.2L92.64-3.2Q90.04-3.7 88.94-4.45L88.94-4.45Q87.14-5.7 83.84-8.8L83.84-8.8Q81.84-10.65 81.79-10.7L81.79-10.7 80.89-11.55Q79.84-12.6 79.84-12.6L79.84-12.6Q79.74-12.35 79.74-11.85L79.74-11.85Q79.74-11.4 79.82-10.88 79.89-10.35 79.84-10.15L79.84-10.15Q79.54-4.55 79.44-1.95L79.44-1.95Q79.34-0.3 78.67 0.55 77.99 1.4 76.79 1.2L76.79 1.2Q76.39 1.15 75.92 0.8 75.44 0.45 75.34 0.1L75.34 0.1Q74.79-2.1 74.79-4.2L74.79-4.2Q74.79-10.25 74.94-16.25L74.94-16.25 75.44-32.55Q75.49-35.2 78.19-35.2L78.19-35.2Q80.04-35.2 80.89-34.5 81.74-33.8 81.64-32.3L81.64-32.3 81.14-27.2Q80.94-25.45 80.64-22.45L80.64-22.45ZM104.14-31.65Q104.19-31.6 102.89-32.75L102.89-32.75Q101.99-33.55 101.54-33.9L101.54-33.9Q101.74-35.25 102.54-35.8 103.34-36.35 104.64-36.65L104.64-36.65Q105.99-37 107.54-37L107.54-37Q109.04-37 110.59-36.7L110.59-36.7Q115.04-35.9 118.44-34.85 121.84-33.8 124.79-31.9L124.79-31.9Q126.84-30.65 128.24-28.95L128.24-28.95Q130.29-26.3 130.29-23.55L130.29-23.55Q130.29-21.2 128.74-18.7L128.74-18.7Q122.84-9.35 116.59-3.95L116.59-3.95Q112.79-0.6 108.19 1.55L108.19 1.55Q106.49 2.4 104.64 2.4L104.64 2.4Q102.44 2.4 100.39 1.15L100.39 1.15Q99.64 0.65 99.24 0.13 98.84-0.4 98.84-1.1L98.84-1.1 98.89-1.55 99.24-4.15Q99.84-8.75 100.34-11L100.34-11 100.59-12.1Q102.09-18.6 102.84-22.58 103.59-26.55 103.94-30.75L103.94-30.75 104.14-31.65ZM110.74-32.25Q110.14-32.3 109.14-32.15L109.14-32.15 108.04-32Q109.24-31 109.79-30.25 110.34-29.5 110.34-28.65L110.34-28.65Q110.34-28.45 110.24-27.95L110.24-27.95Q109.59-25.05 108.49-20.8L108.49-20.8 106.69-13.6Q105.49-8.7 104.59-4.5L104.59-4.5Q104.44-3.95 104.42-3.28 104.39-2.6 104.39-2.3L104.39-2.3Q104.84-2.1 104.89-2.1L104.89-2.1 105.54-2.35Q113.04-6 118.34-12.55L118.34-12.55Q120.49-15.3 121.97-17.75 123.44-20.2 124.19-22.9L124.19-22.9Q124.39-23.55 124.39-24.45L124.39-24.45Q124.39-26 123.62-27.25 122.84-28.5 121.49-29.15L121.49-29.15Q116.49-31.4 110.74-32.25L110.74-32.25ZM146.24-3.35Q144.69-2.4 142.69-2.4L142.69-2.4Q140.49-2.4 138.46-3.53 136.44-4.65 135.24-6.75 134.04-8.85 134.24-11.55L134.24-11.55 134.49-12.75Q134.79-14.55 134.99-15.4L134.99-15.4Q135.44-17.25 136.79-18 138.14-18.75 140.39-19.2L140.39-19.2Q141.84-19.5 143.24-19.5L143.24-19.5Q147.64-19.5 150.64-16.55L150.64-16.55Q152.24-14.95 152.24-12.65L152.24-12.65Q152.24-10.4 150.59-7.8L150.59-7.8Q148.69-4.85 146.24-3.35L146.24-3.35ZM142.04-16.95Q141.24-15 140.34-12.1L140.34-12.1 139.84-10.6 140.19-10.45Q140.19-10.1 140.21-9.38 140.24-8.65 140.39-8.15L140.39-8.15Q140.94-6.6 141.64-6.25L141.64-6.25Q141.94-6.1 142.51-6.4 143.09-6.7 143.54-7.1L143.54-7.1Q144.24-7.7 145.79-9.6L145.79-9.6Q146.94-10.9 146.94-12.7L146.94-12.7Q146.94-14.25 146.06-15.5 145.19-16.75 143.64-17.2L143.64-17.2Q143.49-17.25 143.09-17.25L143.09-17.25Q142.14-17.25 142.04-16.95L142.04-16.95ZM164.14-18.85Q164.14-18.55 164.04-18.07 163.94-17.6 163.99-17.45L163.99-17.45Q167.44-18.2 169.84-18.2L169.84-18.2Q173.59-18.2 175.49-14.6L175.49-14.6Q177.04-11.55 177.04-7.85L177.04-7.85Q177.04-6.9 176.84-5.1L176.84-5.1Q176.69-3.9 175.89-3.18 175.09-2.45 173.99-2.45L173.99-2.45Q172.84-2.45 172.36-2.88 171.89-3.3 171.81-3.85 171.74-4.4 171.74-5.6L171.74-5.6 171.69-6.65Q171.59-9.65 171.29-11.85L171.29-11.85Q171.14-12.75 170.61-13.13 170.09-13.5 169.24-13.5L169.24-13.5Q168.44-13.5 167.34-13.25L167.34-13.25Q165.64-12.8 165.06-12.55 164.49-12.3 163.39-11.5L163.39-11.5Q163.04-11.25 162.89-10.5 162.74-9.75 162.74-9.65L162.74-9.65Q162.09-6.45 161.34-2L161.34-2Q161.29-1.8 161.14-1.05 160.99-0.3 160.56 0.03 160.14 0.35 159.34 0.25L159.34 0.25Q156.19-0.15 156.14-2.4L156.14-2.4Q156.09-5.3 156.59-9.25L156.59-9.25Q156.94-12.1 157.24-13.85L157.24-13.85Q157.34-14.65 157.51-15.8 157.69-16.95 157.84-18.45L157.84-18.45Q157.99-19.6 158.14-20.15 158.29-20.7 158.84-21.08 159.39-21.45 160.54-21.45L160.54-21.45Q161.99-21.45 162.94-20.8 163.89-20.15 164.14-18.95L164.14-18.95 164.14-18.85Z" opacity="1" transform="matrix(1,0,0,1,0,0)" fill="black" class="wordmark-text-0" id="SvgjsPath2072" stroke-width="8" stroke="black" stroke-linejoin="round"></path></svg></g></svg></g></svg></g></svg></g><g></g></svg></g></svg></g></svg></g></mask><g transform="matrix(1,0,0,1,39.55199999999999,82.6886022913257)"><svg viewBox="0 0 316.416 81.8227954173486" height="81.8227954173486" width="316.416"><g><svg viewBox="0 0 316.416 81.8227954173486" height="81.8227954173486" width="316.416"><g><svg viewBox="0 0 316.416 81.8227954173486" height="81.8227954173486" width="316.416"><g><svg viewBox="0 0 316.416 81.8227954173486" height="81.8227954173486" width="316.416"><g id="textblocktransform"><svg viewBox="0 0 316.416 81.8227954173486" height="81.8227954173486" width="316.416" id="textblock"><g><svg viewBox="0 0 316.416 81.8227954173486" height="81.8227954173486" width="316.416"><g transform="matrix(1,0,0,1,0,0)"><svg width="316.416" viewBox="-2.75 -41.5 184.29 48.4" height="81.8227954173486" data-palette-color="#77dfec"><path d="M15.25-17.25Q15.4-19.3 15.55-21.03 15.7-22.75 15.85-24.15L15.85-24.15 16.25-28.15Q12.35-27.55 7.95-25.85L7.95-25.85Q6.9-25.45 6-25.45L6-25.45Q4.65-25.45 3.53-26.2 2.4-26.95 1.75-28.4L1.75-28.4Q2.05-29.5 2.88-30.05 3.7-30.6 5.15-31.15L5.15-31.15Q12.1-33.7 21.05-33.65L21.05-33.65Q25.3-33.65 29.93-33.3 34.55-32.95 35.35-32.9L35.35-32.9 38.85-32.65Q39.05-32.65 39.53-32.65 40-32.65 40.3-32.43 40.6-32.2 40.6-31.7L40.6-31.7Q40.6-30.45 38.8-30.25L38.8-30.25Q34.3-29.75 32.4-29.55L32.4-29.55Q30.45-29.45 29.45-29.35L29.45-29.35Q25.55-29.1 23.6-28.95L23.6-28.95Q22.4-28.85 21.95-28.68 21.5-28.5 21.38-28.08 21.25-27.65 21.15-26.3L21.15-26.3Q20.9-23.15 20.1-15.45L20.1-15.45Q19.3-8.5 19.1-5.85L19.1-5.85Q19.05-4.4 18.45-2.35L18.45-2.35Q18.05-1.05 17.8-0.63 17.55-0.2 17.07-0.1 16.6 0 15.3-0.05L15.3-0.05Q14.35-0.05 13.83-0.48 13.3-0.9 13.3-1.65L13.3-1.65Q13.3-1.8 13.4-2.3L13.4-2.3Q14.5-6.65 15.25-17.25L15.25-17.25ZM48.65-2.55Q48.2-2.75 47.75-2.75L47.75-2.75Q47.3-2.75 46.97-2.53 46.65-2.3 46.25-1.85L46.25-1.85Q45.65-1.25 45-0.85L45-0.85Q44.4-0.5 42.8-0.2L42.8-0.2Q42.1-0.1 41.65-0.1L41.65-0.1Q39.55-0.1 37.27-1.03 35-1.95 34.05-3.25L34.05-3.25Q33.05-4.65 33.1-6.25L33.1-6.25Q33.15-8.65 35.1-11.05L35.1-11.05Q37-13.35 38.57-14.3 40.15-15.25 42.9-15.5L42.9-15.5Q43.5-15.5 44.62-15.7 45.75-15.9 45.75-16.25L45.75-16.25Q45.75-16.95 45.12-17.53 44.5-18.1 42.6-18.1L42.6-18.1Q41.9-18.1 40.5-18L40.5-18Q39.1-17.9 38.55-17.9L38.55-17.9Q36.85-17.9 36.1-18.45L36.1-18.45Q35.9-18.55 35.9-19.4L35.9-19.4Q35.9-20.9 36.95-21.3L36.95-21.3Q39.1-22.1 41.4-22.15L41.4-22.15Q44.3-22.15 46.77-20.88 49.25-19.6 50.4-17.7L50.4-17.7Q51.55-15.8 51.9-12.45L51.9-12.45Q52.3-8.7 52.3-2.9L52.3-2.9Q52.3-1.3 51.85-1.05L51.85-1.05Q51.45-0.8 51.1-0.8L51.1-0.8Q50.65-0.8 50.27-1.07 49.9-1.35 49.45-1.85L49.45-1.85Q49-2.4 48.65-2.55L48.65-2.55ZM40.75-3.15Q43.1-3.85 45.35-5.4L45.35-5.4Q45.85-5.75 46.25-6.3 46.65-6.85 46.75-7L46.75-7Q46.85-7.15 46.92-7.88 47-8.6 46.95-9.05L46.95-9.05Q46.9-9.2 46.77-9.85 46.65-10.5 46.4-11L46.4-11Q46.15-11.4 45.6-11.75 45.05-12.1 44.6-12.05L44.6-12.05Q43.65-12 42.55-11.35 41.45-10.7 40.5-9.6L40.5-9.6Q39.55-8.45 39.02-7.28 38.5-6.1 38.5-5.1L38.5-5.1Q38.6-3.75 39.25-3.3L39.25-3.3Q39.6-3.05 40.1-3.05L40.1-3.05Q40.5-3.05 40.75-3.15L40.75-3.15ZM62.35 1.1Q58.15 1.1 57-2.5L57-2.5Q57.4-2.5 58.07-2.48 58.75-2.45 59.2-2.35L59.2-2.35Q59.9-2.25 60.2-2.25L60.2-2.25Q62.45-2.25 63.95-4.25L63.95-4.25Q65-5.7 65-7.2L65-7.2Q65-8.2 64.5-9.15L64.5-9.15Q63.4-11.1 61.8-13.45L61.8-13.45Q60.75-15 59.9-16.4L59.9-16.4Q58.9-18 58.9-19.95L58.9-19.95Q58.9-21.75 59.92-23.13 60.95-24.5 62.95-24.85L62.95-24.85 64.55-25.15Q67.15-25.65 68.45-25.65L68.45-25.65Q70.6-25.65 72.25-24.65L72.25-24.65Q72.6-24.4 72.97-23.78 73.35-23.15 73.55-22.8L73.55-22.8Q73.2-22.65 72.57-22.33 71.95-22 71.5-21.95L71.5-21.95Q70.8-21.85 69.4-21.85L69.4-21.85Q68.05-21.85 67.35-21.8L67.35-21.8Q65.75-21.65 64.82-20.73 63.9-19.8 63.9-18.5L63.9-18.5Q63.9-17.5 64.5-16.45L64.5-16.45Q65.85-14.2 68.25-11.3L68.25-11.3Q70.05-9.05 70.05-6.65L70.05-6.65Q70.05-5.35 69.45-3.9L69.45-3.9Q67.4 1.1 62.35 1.1L62.35 1.1ZM80.64-22.45Q80.64-22.2 80.52-21.28 80.39-20.35 80.39-19.8L80.39-19.8Q80.39-19.4 80.49-19.3L80.49-19.3 81.94-20.7Q82.74-21.6 83.34-22.1L83.34-22.1Q84.64-23.3 85.99-23.3L85.99-23.3Q87.09-23.3 87.64-22.45L87.64-22.45Q87.94-21.95 87.94-21.3L87.94-21.3Q87.94-20.8 87.74-20.55L87.74-20.55Q86.99-19.4 85.04-17.1L85.04-17.1Q84.29-16.3 84.29-15.55L84.29-15.55Q84.29-14.85 84.99-14L84.99-14Q85.59-13.3 86.69-11.9L86.69-11.9Q88.84-9.15 90.52-7.48 92.19-5.8 94.39-4.7L94.39-4.7Q94.64-4.6 94.79-4.23 94.94-3.85 94.89-3.65L94.89-3.65Q94.84-3.4 94.49-3.15 94.14-2.9 93.89-2.95L93.89-2.95Q93.14-3.15 92.64-3.2L92.64-3.2Q90.04-3.7 88.94-4.45L88.94-4.45Q87.14-5.7 83.84-8.8L83.84-8.8Q81.84-10.65 81.79-10.7L81.79-10.7 80.89-11.55Q79.84-12.6 79.84-12.6L79.84-12.6Q79.74-12.35 79.74-11.85L79.74-11.85Q79.74-11.4 79.82-10.88 79.89-10.35 79.84-10.15L79.84-10.15Q79.54-4.55 79.44-1.95L79.44-1.95Q79.34-0.3 78.67 0.55 77.99 1.4 76.79 1.2L76.79 1.2Q76.39 1.15 75.92 0.8 75.44 0.45 75.34 0.1L75.34 0.1Q74.79-2.1 74.79-4.2L74.79-4.2Q74.79-10.25 74.94-16.25L74.94-16.25 75.44-32.55Q75.49-35.2 78.19-35.2L78.19-35.2Q80.04-35.2 80.89-34.5 81.74-33.8 81.64-32.3L81.64-32.3 81.14-27.2Q80.94-25.45 80.64-22.45L80.64-22.45ZM104.14-31.65Q104.19-31.6 102.89-32.75L102.89-32.75Q101.99-33.55 101.54-33.9L101.54-33.9Q101.74-35.25 102.54-35.8 103.34-36.35 104.64-36.65L104.64-36.65Q105.99-37 107.54-37L107.54-37Q109.04-37 110.59-36.7L110.59-36.7Q115.04-35.9 118.44-34.85 121.84-33.8 124.79-31.9L124.79-31.9Q126.84-30.65 128.24-28.95L128.24-28.95Q130.29-26.3 130.29-23.55L130.29-23.55Q130.29-21.2 128.74-18.7L128.74-18.7Q122.84-9.35 116.59-3.95L116.59-3.95Q112.79-0.6 108.19 1.55L108.19 1.55Q106.49 2.4 104.64 2.4L104.64 2.4Q102.44 2.4 100.39 1.15L100.39 1.15Q99.64 0.65 99.24 0.13 98.84-0.4 98.84-1.1L98.84-1.1 98.89-1.55 99.24-4.15Q99.84-8.75 100.34-11L100.34-11 100.59-12.1Q102.09-18.6 102.84-22.58 103.59-26.55 103.94-30.75L103.94-30.75 104.14-31.65ZM110.74-32.25Q110.14-32.3 109.14-32.15L109.14-32.15 108.04-32Q109.24-31 109.79-30.25 110.34-29.5 110.34-28.65L110.34-28.65Q110.34-28.45 110.24-27.95L110.24-27.95Q109.59-25.05 108.49-20.8L108.49-20.8 106.69-13.6Q105.49-8.7 104.59-4.5L104.59-4.5Q104.44-3.95 104.42-3.28 104.39-2.6 104.39-2.3L104.39-2.3Q104.84-2.1 104.89-2.1L104.89-2.1 105.54-2.35Q113.04-6 118.34-12.55L118.34-12.55Q120.49-15.3 121.97-17.75 123.44-20.2 124.19-22.9L124.19-22.9Q124.39-23.55 124.39-24.45L124.39-24.45Q124.39-26 123.62-27.25 122.84-28.5 121.49-29.15L121.49-29.15Q116.49-31.4 110.74-32.25L110.74-32.25ZM146.24-3.35Q144.69-2.4 142.69-2.4L142.69-2.4Q140.49-2.4 138.46-3.53 136.44-4.65 135.24-6.75 134.04-8.85 134.24-11.55L134.24-11.55 134.49-12.75Q134.79-14.55 134.99-15.4L134.99-15.4Q135.44-17.25 136.79-18 138.14-18.75 140.39-19.2L140.39-19.2Q141.84-19.5 143.24-19.5L143.24-19.5Q147.64-19.5 150.64-16.55L150.64-16.55Q152.24-14.95 152.24-12.65L152.24-12.65Q152.24-10.4 150.59-7.8L150.59-7.8Q148.69-4.85 146.24-3.35L146.24-3.35ZM142.04-16.95Q141.24-15 140.34-12.1L140.34-12.1 139.84-10.6 140.19-10.45Q140.19-10.1 140.21-9.38 140.24-8.65 140.39-8.15L140.39-8.15Q140.94-6.6 141.64-6.25L141.64-6.25Q141.94-6.1 142.51-6.4 143.09-6.7 143.54-7.1L143.54-7.1Q144.24-7.7 145.79-9.6L145.79-9.6Q146.94-10.9 146.94-12.7L146.94-12.7Q146.94-14.25 146.06-15.5 145.19-16.75 143.64-17.2L143.64-17.2Q143.49-17.25 143.09-17.25L143.09-17.25Q142.14-17.25 142.04-16.95L142.04-16.95ZM164.14-18.85Q164.14-18.55 164.04-18.07 163.94-17.6 163.99-17.45L163.99-17.45Q167.44-18.2 169.84-18.2L169.84-18.2Q173.59-18.2 175.49-14.6L175.49-14.6Q177.04-11.55 177.04-7.85L177.04-7.85Q177.04-6.9 176.84-5.1L176.84-5.1Q176.69-3.9 175.89-3.18 175.09-2.45 173.99-2.45L173.99-2.45Q172.84-2.45 172.36-2.88 171.89-3.3 171.81-3.85 171.74-4.4 171.74-5.6L171.74-5.6 171.69-6.65Q171.59-9.65 171.29-11.85L171.29-11.85Q171.14-12.75 170.61-13.13 170.09-13.5 169.24-13.5L169.24-13.5Q168.44-13.5 167.34-13.25L167.34-13.25Q165.64-12.8 165.06-12.55 164.49-12.3 163.39-11.5L163.39-11.5Q163.04-11.25 162.89-10.5 162.74-9.75 162.74-9.65L162.74-9.65Q162.09-6.45 161.34-2L161.34-2Q161.29-1.8 161.14-1.05 160.99-0.3 160.56 0.03 160.14 0.35 159.34 0.25L159.34 0.25Q156.19-0.15 156.14-2.4L156.14-2.4Q156.09-5.3 156.59-9.25L156.59-9.25Q156.94-12.1 157.24-13.85L157.24-13.85Q157.34-14.65 157.51-15.8 157.69-16.95 157.84-18.45L157.84-18.45Q157.99-19.6 158.14-20.15 158.29-20.7 158.84-21.08 159.39-21.45 160.54-21.45L160.54-21.45Q161.99-21.45 162.94-20.8 163.89-20.15 164.14-18.95L164.14-18.95 164.14-18.85Z" opacity="1" transform="matrix(1,0,0,1,0,0)" fill="#77dfec" class="wordmark-text-0" data-fill-palette-color="primary" id="text-0"></path></svg></g></svg></g></svg></g></svg></g><g></g></svg></g></svg></g></svg></g><g mask="url(#d52fe271-b6ff-4a84-b72d-4edd43f1721f)"><g transform="matrix(3.3948523405374718, 0, 0, 3.3948523405374718, 44.991644675813774, 1)"><svg xmlns="http://www.w3.org/2000/svg" xmlns:xlink="http://www.w3.org/1999/xlink" version="1.1" x="0" y="0" viewBox="5 13.887 90 72.227" enable-background="new 0 0 100 100" xml:space="preserve" height="72.227" width="90" class="icon-none" data-fill-palette-color="accent" id="none"><path d="M94.551 34.729c-0.695-0.642-2.176-1.508-3.602-1.113-0.346 0.095-0.689 0.263-1.018 0.527-0.01 0.008-0.02 0.017-0.031 0.025-0.32 0.264-0.688 0.605-1.082 1.016-1.064-0.345-2.332-0.357-3.416 0.6-1.926 1.696-4.441 6.604-5.5 8.963-0.264 0.589-0.604 1.269-0.977 1.972-0.322 0.607-0.674 1.229-1.025 1.829-0.314 0.17-0.619 0.376-0.904 0.625-1.23 1.086-2.576 3.256-3.764 5.172l-0.293 0.468c-2.029 2.305-4.51 3.087-6.451 3.511-2.307 0.505-6.555 2.473-8.58 4.253-1.844 1.627-5.904 6.278-6.396 8.125-0.094 0.339-0.213 0.714-0.354 1.149-0.191 0.6-0.43 1.334-0.684 2.281-0.152 0.572-0.312 1.225-0.475 1.973-0.16-0.748-0.32-1.4-0.475-1.973-0.254-0.947-0.488-1.682-0.684-2.281-0.139-0.436-0.26-0.811-0.352-1.149-0.494-1.847-4.555-6.498-6.4-8.125-2.023-1.78-6.271-3.748-8.576-4.253-1.943-0.424-4.424-1.206-6.453-3.511l-0.291-0.468c-1.188-1.916-2.537-4.086-3.768-5.172-0.283-0.249-0.588-0.455-0.9-0.625-0.354-0.6-0.705-1.222-1.027-1.829-0.373-0.703-0.713-1.383-0.979-1.972-1.059-2.359-3.57-7.267-5.496-8.963-1.088-0.957-2.354-0.944-3.416-0.6-0.396-0.41-0.762-0.752-1.084-1.016-0.01-0.009-0.023-0.018-0.029-0.025-0.328-0.265-0.672-0.433-1.018-0.527-1.43-0.395-2.908 0.472-3.602 1.113L5 35.144l0.244 0.561c0.072 0.164 0.662 1.521 1.445 3.319 1.652 3.796 4.168 9.56 4.482 10.197 0.17 0.35 0.322 0.736 0.467 1.112 0.232 0.609 0.457 1.185 0.781 1.634 0.416 0.579 4.326 6.719 4.752 7.42 0.088 0.148 0.238 0.565 0.371 0.933 0.428 1.198 0.963 2.688 1.986 3.322 0.598 0.376 1.771 1.56 3.248 3.059 0.994 1.011 2.125 2.153 3.436 3.419 1.486 1.434 2.922 2.504 4.188 3.451 1.697 1.264 3.039 2.266 3.93 3.653 0.461 0.718 0.605 2.677 0.572 5.095-0.018 1.177-0.076 2.49-0.166 3.795 0.586-0.041 29.941-0.041 30.527 0-0.088-1.305-0.148-2.618-0.166-3.795-0.033-2.418 0.111-4.377 0.574-5.095 0.889-1.388 2.23-2.39 3.928-3.653 1.268-0.947 2.701-2.018 4.188-3.451 1.312-1.266 2.441-2.408 3.436-3.419 1.479-1.499 2.646-2.683 3.25-3.059 1.021-0.635 1.555-2.124 1.986-3.322 0.131-0.367 0.281-0.784 0.371-0.933 0.422-0.701 4.334-6.841 4.75-7.42 0.322-0.449 0.547-1.024 0.781-1.634 0.146-0.376 0.295-0.763 0.469-1.112 0.312-0.638 2.83-6.401 4.482-10.197 0.781-1.798 1.373-3.155 1.443-3.319L95 35.144 94.551 34.729zM13.461 37.075c1.363 1.204 3.336 4.758 4.566 7.311 0.184 0.382 0.352 0.741 0.498 1.066 0.311 0.696 0.75 1.565 1.244 2.477l-2.881-3.248c-0.111-0.162-0.225-0.329-0.344-0.503-0.184-0.569-0.396-1.12-0.623-1.66-0.955-2.287-2.225-4.296-3.434-5.826C12.82 36.703 13.158 36.81 13.461 37.075zM48.98 84.242h-12.4c0.031-0.857 0.051-1.716 0.049-2.477-0.01-2.411-0.227-4.506-0.848-5.471-1.059-1.652-2.586-2.791-4.35-4.107-1.225-0.914-2.613-1.949-4.021-3.309-1.297-1.251-2.418-2.387-3.406-3.388-1.682-1.704-2.791-2.831-3.564-3.311-0.514-0.319-0.992-1.649-1.275-2.442-0.191-0.529-0.342-0.946-0.518-1.241-0.447-0.739-4.381-6.915-4.828-7.538-0.195-0.27-0.377-0.743-0.574-1.249-0.158-0.408-0.322-0.833-0.525-1.248-0.303-0.614-2.961-6.705-4.914-11.192-0.248-0.573-0.486-1.12-0.707-1.628 0.498-0.309 1.285-0.645 1.887-0.158 0.02 0.015 0.041 0.032 0.061 0.05 0.164 0.138 0.344 0.298 0.539 0.486 0.193 0.186 0.396 0.396 0.607 0.628 0.186 0.2 0.375 0.419 0.57 0.651 0.598 0.717 1.229 1.579 1.84 2.549 0.908 1.449 1.762 3.146 2.342 4.975l0.037 0.119 0.07 0.102c1.23 1.818 2.092 3.008 2.684 3.775-0.109 0.087-0.215 0.178-0.314 0.277-1.449 1.456-1.018 2.523 1.475 6.436 0.404 0.752 0.664 1.385 0.873 1.895 0.137 0.334 0.256 0.623 0.387 0.881 0.094 0.188 0.195 0.48 0.291 0.764 0.199 0.595 0.389 1.158 0.756 1.502 0.053 0.054 0.158 0.145 0.312 0.283 2.248 2.01 3.605 3.393 4.035 4.114 0.893 1.485 2.643 3.017 2.713 3.083l1.133-1.301c-0.02-0.016-1.279-1.123-2.086-2.247-0.102-0.141-0.195-0.282-0.281-0.422-0.693-1.16-2.697-3.021-4.365-4.512-0.115-0.104-0.217-0.194-0.264-0.238-0.086-0.12-0.234-0.553-0.322-0.813-0.113-0.34-0.232-0.691-0.385-0.99-0.1-0.198-0.207-0.458-0.33-0.758-0.227-0.553-0.508-1.238-0.959-2.08l-0.014-0.027-0.018-0.027c-2.357-3.694-2.188-3.866-1.73-4.323 0.064-0.065 0.131-0.122 0.201-0.176 0.043-0.033 0.086-0.063 0.129-0.092 0.193-0.125 0.398-0.211 0.609-0.261 0.43-0.101 0.887-0.053 1.314 0.103 0.354 0.128 0.688 0.329 0.969 0.578 0.566 0.498 1.221 1.361 1.867 2.323 0.545 0.805 1.086 1.678 1.574 2.463l0.334 0.537 0.037 0.059c-0.002-0.001 0.043 0.053 0.043 0.053 2.396 2.75 5.387 3.66 7.426 4.106 2.061 0.448 6.004 2.274 7.809 3.864 1.951 1.719 5.549 6.059 5.871 7.273 0.104 0.383 0.229 0.777 0.379 1.234 0.248 0.772 0.545 1.702 0.861 2.983 0.262 1.079 0.537 2.405 0.803 4.108 0.037 0.253 0.076 0.558 0.113 0.904V84.242zM81.475 45.452c0.146-0.325 0.314-0.685 0.498-1.066 1.232-2.553 3.203-6.106 4.568-7.311 0.301-0.266 0.639-0.372 0.971-0.384-1.207 1.53-2.477 3.539-3.434 5.826-0.225 0.54-0.438 1.091-0.623 1.66-0.121 0.174-0.23 0.341-0.344 0.503l-2.879 3.248C80.725 47.018 81.164 46.148 81.475 45.452zM92.195 37.27c-1.951 4.487-4.611 10.578-4.912 11.192-0.205 0.415-0.369 0.84-0.527 1.248-0.195 0.506-0.379 0.979-0.572 1.249-0.449 0.623-4.383 6.799-4.832 7.538-0.176 0.295-0.324 0.712-0.516 1.241-0.283 0.793-0.762 2.123-1.275 2.442-0.771 0.479-1.885 1.606-3.564 3.311-0.988 1.001-2.109 2.137-3.406 3.388-1.408 1.359-2.797 2.395-4.021 3.309-1.764 1.316-3.289 2.455-4.35 4.107-0.621 0.965-0.84 3.06-0.846 5.471-0.006 0.761 0.014 1.619 0.045 2.477h-12.4v-3.867c0.039-0.347 0.078-0.651 0.117-0.904 0.264-1.703 0.539-3.029 0.801-4.108 0.316-1.281 0.613-2.211 0.861-2.983 0.15-0.457 0.277-0.852 0.379-1.234 0.324-1.215 3.918-5.555 5.871-7.273 1.807-1.59 5.75-3.416 7.809-3.864 2.039-0.446 5.029-1.356 7.424-4.106 0 0 0.047-0.054 0.045-0.053l0.037-0.059 0.334-0.537c0.488-0.785 1.029-1.658 1.572-2.463 0.65-0.962 1.303-1.825 1.869-2.323 0.281-0.249 0.615-0.45 0.969-0.578 0.428-0.155 0.883-0.203 1.312-0.103 0.213 0.05 0.418 0.136 0.611 0.261 0.041 0.028 0.086 0.059 0.131 0.092 0.068 0.054 0.137 0.11 0.199 0.176 0.457 0.457 0.627 0.629-1.73 4.323l-0.018 0.027L79.6 54.691c-0.453 0.842-0.734 1.527-0.961 2.08-0.125 0.3-0.23 0.56-0.332 0.758-0.15 0.299-0.268 0.65-0.383 0.99-0.088 0.261-0.234 0.693-0.322 0.813-0.049 0.044-0.146 0.134-0.262 0.238-1.67 1.491-3.676 3.352-4.367 4.512-0.084 0.14-0.18 0.281-0.279 0.422-0.809 1.124-2.07 2.231-2.088 2.247l1.129 1.301c0.074-0.066 1.826-1.598 2.717-3.083 0.432-0.722 1.787-2.104 4.037-4.114 0.156-0.139 0.256-0.229 0.311-0.283 0.365-0.344 0.557-0.907 0.758-1.502 0.096-0.283 0.195-0.576 0.289-0.764 0.131-0.258 0.25-0.547 0.387-0.881 0.211-0.51 0.471-1.143 0.871-1.895 2.492-3.912 2.928-4.979 1.475-6.436-0.098-0.1-0.203-0.19-0.312-0.277 0.594-0.768 1.455-1.957 2.684-3.775l0.07-0.102 0.039-0.119c0.58-1.829 1.432-3.525 2.34-4.975 0.609-0.97 1.244-1.832 1.84-2.549 0.195-0.232 0.387-0.451 0.57-0.651 0.211-0.232 0.416-0.442 0.607-0.628 0.193-0.188 0.373-0.349 0.541-0.486 0.018-0.018 0.041-0.035 0.057-0.05 0.604-0.486 1.391-0.15 1.889 0.158C92.684 36.149 92.445 36.696 92.195 37.27zM42.406 35.576c0 0.779 0.631 1.412 1.41 1.412s1.412-0.633 1.412-1.412-0.633-1.412-1.412-1.412S42.406 34.797 42.406 35.576zM43.418 24c0.068 0.334 0.104 0.681 0.104 1.035 0 0.358-0.037 0.708-0.105 1.046 0.879-0.417 1.971-0.621 2.77-1.117C45.225 24.681 44.359 24.304 43.418 24zM40.602 17.428c-0.553 0.858-1.238 1.589-1.828 2.413 0.73 0.065 1.418 0.279 2.029 0.614C40.727 19.455 40.859 18.247 40.602 17.428zM44.648 20.427c0.018-0.087 0.109-0.142-0.068-0.139-0.9 0.322-1.854 0.594-2.852 0.818 0.545 0.475 0.99 1.062 1.299 1.724C43.561 22.021 44.092 21.211 44.648 20.427zM26.895 46.773H44.16c2.229 0 4.457 1.707 4.48 1.822h0.01c0.455 0.34 0.459 0.332 0.91 0.332h1.209c0.461 0 0.484 0.009 0.895-0.423 0.074-0.126 2.377-1.731 4.426-1.731h17.016c0.506 0 0.91-0.412 0.91-0.917V14.805c0-0.505-0.404-0.918-0.91-0.918H56.09c-3.457 0-5.145 1.566-5.965 2.41-0.82-0.844-2.51-2.41-5.965-2.41H26.895c-0.504 0-0.908 0.413-0.908 0.919v31.051C25.986 46.361 26.391 46.773 26.895 46.773zM55.945 15.581c0.641 0 16.377 0 16.377 0v29.5c0 0-15.736 0-16.377 0-2.615 0-4.93 1.823-4.93 1.823V17.962C51.016 17.962 50.883 15.581 55.945 15.581zM27.824 15.581c0 0 15.738 0 16.379 0 5.061 0 4.93 2.381 4.93 2.381v28.942c0 0-2.314-1.823-4.93-1.823-0.641 0-16.379 0-16.379 0V15.581zM66.848 29.234H54.912v1.305h11.936V29.234zM64.939 36.936H54.912v1.305h10.027V36.936zM68.145 25.384H54.912v1.304h13.232V25.384zM69.074 21.533H54.912v1.305h14.162V21.533zM68.049 33.085H54.912v1.305h13.137V33.085zM35.717 17.428c-0.039 1.059-0.029 2.167-0.137 3.162 0.615-0.376 1.309-0.63 2.055-0.725C37.041 19.009 36.406 18.189 35.717 17.428zM35.582 29.481c0.146 0.976 0.008 2.234 0.205 3.159 0.57-0.857 1.26-1.596 1.848-2.437C36.889 30.109 36.195 29.856 35.582 29.481zM38.305 37.621c-1.088 0-1.971 0.882-1.971 1.969v2.655h3.938V39.59C40.271 38.503 39.391 37.621 38.305 37.621zM38.311 20.845c-2.311 0-4.188 1.875-4.188 4.188 0 2.314 1.877 4.19 4.188 4.19 2.314 0 4.189-1.876 4.189-4.19C42.5 22.72 40.625 20.845 38.311 20.845zM38.74 30.23c0.707 0.718 1.213 1.636 1.934 2.342 0.053-0.898 0.152-2.036 0.086-2.935C40.148 29.963 39.467 30.169 38.74 30.23zM45.785 39.59c0-1.087-0.881-1.969-1.969-1.969-1.086 0-1.967 0.882-1.967 1.969v2.655h3.936V39.59zM43.006 27.285c-0.299 0.625-0.719 1.179-1.23 1.635 0.996 0.228 1.869 0.572 2.873 0.789C44.15 28.854 43.609 28.037 43.006 27.285zM32.754 36.988c0.781 0 1.412-0.633 1.412-1.412s-0.631-1.412-1.412-1.412c-0.779 0-1.412 0.633-1.412 1.412S31.975 36.988 32.754 36.988zM33.084 25.035c0-0.375 0.041-0.74 0.117-1.093-1.037 0.327-2.035 0.69-2.998 1.091 1 0.363 1.998 0.727 2.996 1.09C33.125 25.772 33.084 25.408 33.084 25.035zM32.754 37.621c-1.084 0-1.969 0.882-1.969 1.969v2.655h3.939V39.59C34.725 38.503 33.842 37.621 32.754 37.621zM38.305 36.988c0.777 0 1.412-0.633 1.412-1.412s-0.635-1.412-1.412-1.412c-0.779 0-1.412 0.633-1.412 1.412S37.525 36.988 38.305 36.988zM34.803 21.174c-1.02-0.297-2.059-0.576-3.062-0.886 0.561 0.912 1.127 1.819 1.803 2.616C33.84 22.242 34.271 21.655 34.803 21.174zM33.484 27.058c-0.541 0.927-1.191 1.741-1.744 2.651 1.045-0.244 2.033-0.547 3.006-0.864-0.529-0.493-0.957-1.09-1.244-1.766C33.496 27.073 33.49 27.064 33.484 27.058z" fill="#ffffff" data-fill-palette-color="accent"></path></svg></g></g></svg></g><defs></defs></svg><rect width="395.52" height="247.2" fill="none" stroke="none" visibility="hidden"></rect></g></svg></g></svg>