<?xml version="1.0" encoding="UTF-8" standalone="no" ?>
<!DOCTYPE svg PUBLIC "-//W3C//DTD SVG 1.1//EN" "http://www.w3.org/Graphics/SVG/1.1/DTD/svg11.dtd">
<svg xmlns="http://www.w3.org/2000/svg" xmlns:xlink="http://www.w3.org/1999/xlink" version="1.1" width="1024" height="512" viewBox="0 0 1024 512" xml:space="preserve">
<desc>Created with Fabric.js 5.2.4</desc>
<defs>
</defs>
<g transform="matrix(1 0 0 1 512 256)" id="d72cb5cb-188e-413c-8940-9a1248dc0fb4"  >
<rect style="stroke: none; stroke-width: 1; stroke-dasharray: none; stroke-linecap: butt; stroke-dashoffset: 0; stroke-linejoin: miter; stroke-miterlimit: 4; fill: rgb(255,255,255); fill-rule: nonzero; opacity: 1; visibility: hidden;" vector-effect="non-scaling-stroke"  x="-512" y="-256" rx="0" ry="0" width="1024" height="512" />
</g>
<g transform="matrix(Infinity NaN NaN Infinity 0 0)" id="482f28ad-5195-4c7d-991d-eda59fce51cb"  >
</g>
<g transform="matrix(0.47 0 0 0.47 512 256)"  >
<g style="" vector-effect="non-scaling-stroke"   >
		<g transform="matrix(0.44 0 0 0.44 0 0)"  >
<path style="stroke: none; stroke-width: 1; stroke-dasharray: none; stroke-linecap: butt; stroke-dashoffset: 0; stroke-linejoin: miter; stroke-miterlimit: 4; fill: rgb(95,255,186); fill-rule: nonzero; opacity: 1;" vector-effect="non-scaling-stroke"  transform=" translate(-910.41, -512.09)" d="M 910.317037 172.562963 C 723.247407 172.562963 570.785185 325.025185 570.785185 512.094815 C 570.785185 699.0696300000001 723.247407 851.626667 910.317037 851.626667 C 1097.3866670000002 851.626667 1250.038518 698.974815 1250.038519 512.0948149999999 C 1250.038519 325.02518499999996 1097.481482 172.5629629999999 910.317037 172.5629629999999 z M 910.317037 804.788148 C 749.131852 804.788148 617.8133330000001 673.09037 617.8133330000001 512.0948149999999 C 617.8133330000001 350.7199999999999 749.1318520000001 219.78074099999992 910.317037 219.78074099999992 C 1071.597037 219.78074099999992 1203.01037 350.7199999999999 1203.01037 512.0948149999999 C 1203.01037 673.0903709999999 1071.691851 804.7881479999999 910.317037 804.7881479999999 z" stroke-linecap="round" />
</g>
		<g transform="matrix(0.44 0 0 0.44 -5.98 -1.27)"  >
<path style="stroke: none; stroke-width: 1; stroke-dasharray: none; stroke-linecap: butt; stroke-dashoffset: 0; stroke-linejoin: miter; stroke-miterlimit: 4; fill: rgb(255,162,141); fill-rule: nonzero; opacity: 1;" vector-effect="non-scaling-stroke"  transform=" translate(-896.81, -509.2)" d="M 823.087407 497.682963 C 830.293333 511.146667 840.154074 527.4548149999999 848.308148 543.383704 C 856.651852 559.597037 868.882963 582.068148 868.882963 582.068148 C 868.882963 582.068148 904.817778 507.35407399999997 930.607407 468.57481499999994 C 996.4088879999999 369.87259299999994 1057.659259 346.4533339999999 1057.659259 346.45333299999993 C 1057.659259 346.45333199999993 1051.306666 399.17036999999993 1051.97037 420.40888899999993 C 1052.728889 444.68148199999996 1062.779259 472.65185199999996 1062.779259 472.65185199999996 C 1062.779259 472.65185199999996 1006.1748149999999 505.55259299999994 952.5096299999999 563.4844439999999 C 918.6607409999999 600.082963 873.1496299999999 671.952592 873.1496299999999 671.952593 C 873.1496299999999 671.952594 834.7496299999999 625.208889 804.5037039999999 601.41037 C 770.9392599999999 574.9570369999999 730.8325929999999 553.5288889999999 730.8325929999999 553.5288889999999 C 730.8325929999999 553.5288889999999 764.1125929999998 531.7214819999999 780.9896299999998 520.817778 C 797.9614819999998 510.00888899999995 823.0874079999998 497.682963 823.0874069999998 497.682963 z" stroke-linecap="round" />
</g>
</g>
</g>
</svg>